<svg xmlns="http://www.w3.org/2000/svg" width="138" height="63" viewBox="0 0 138 63" fill="none">
  <circle cx="117.258" cy="20.742" r="20.742" fill="#A4E7ED"/>
  <circle cx="26.6669" cy="20.742" r="20.742" fill="#73C3F4"/>
  <circle cx="21.8725" cy="48.6811" r="13.4047" fill="#DD71C6"/>
  <circle cx="8.32504" cy="38.5205" r="8.32504" fill="#FFD900"/>
  <path d="M23.8219 38.5862C23.9257 38.2878 23.9965 37.979 24.0332 37.6652C24.0332 37.6652 25.0629 38.6623 25.5692 40.5602C26.0755 42.4581 26.6564 43.115 27.5432 43.9475C28.43 44.78 31.1154 46.4977 33.8892 49.6226C36.6056 52.6884 40.156 56.8554 40.2849 57.0061C40.198 56.8275 37.3558 51.0452 35.7964 48.9594C34.2138 46.841 33.0769 45.0595 31.5642 44.3467C30.0515 43.6338 28.9146 41.8524 28.9239 39.0521C28.9332 36.2518 27.4531 35.073 26.5508 34.5481C25.6484 34.0231 22.845 31.5226 24.3205 27.7144C25.7959 23.9061 33.2742 21.2658 35.1799 20.758C37.0855 20.2501 41.3581 18.7995 41.3581 18.7995C41.3581 18.7995 36.9892 19.0014 34.2884 19.9333C31.631 20.8449 28.6785 21.5858 28.5869 21.6091C28.6335 21.5594 29.5048 20.5716 29.2687 19.59C29.1756 19.137 28.9174 18.7347 28.5443 18.4615C28.1711 18.1882 27.7097 18.0635 27.2497 18.1115C26.5383 18.2109 26.3364 18.3382 26.3054 18.3615C26.3939 18.2652 27.8585 16.782 28.7671 16.1872C29.6756 15.5923 30.7224 14.5766 31.0703 13.9755C31.0703 13.9755 27.5292 15.9387 26.0771 16.7836C24.6249 17.6284 22.991 18.9315 21.2997 21.1633C19.6083 23.3952 19.3117 25.7093 19.6487 27.9085C19.9857 30.1077 20.9828 31.5676 21.4006 32.3722C21.8184 33.1767 22.1989 34.5978 21.688 35.3448C21.177 36.0919 19.3164 38.4697 19.1952 40.4841C19.0741 42.4985 19.9174 43.9522 20.9285 45.2568C21.9396 46.5614 24.0347 50.4256 25.5179 54.2493C27.0012 58.0731 27.8895 58.7534 27.8895 58.7534C27.8895 58.7534 26.6641 50.7424 25.7152 48.5028C24.7662 46.2632 23.516 43.7006 23.2302 43.3775C22.9444 43.0545 22.0654 42.062 22.595 41.0044C23.1246 39.9467 23.6294 39.1919 23.8219 38.5862ZM23.1836 23.4557C23.1836 23.4557 23.1308 21.7473 24.1155 20.8667C24.1155 20.8667 24.3407 22.28 25.7261 22.5208C25.7292 22.5208 24.1232 23.3501 23.1836 23.4557Z" fill="#4D85B0"/>
  <path d="M39.3102 33.3555C39.113 31.5756 38.9064 29.8439 38.689 28.21C38.4715 26.5761 38.2137 25.0277 37.9124 23.6376L37.872 23.4528H35.9306L35.8607 23.5522C35.3793 24.2371 34.89 24.95 34.407 25.6753C33.924 26.4006 33.4363 27.1632 32.9455 27.9553C32.4548 28.7474 31.9469 29.5876 31.4297 30.462C30.9125 31.3364 30.3658 32.2761 29.7974 33.2576L29.5908 33.6102H32.0277L32.0929 33.4859C32.3088 33.0821 32.5231 32.6876 32.7328 32.3118L33.2872 31.3162H36.8905C36.92 31.6129 36.9495 31.9157 36.9774 32.2279C37.0132 32.6131 37.0427 33.0045 37.0644 33.3896L37.0768 33.6102H39.3335L39.3102 33.3555ZM34.3247 29.4541C34.7332 28.7489 35.1261 28.0966 35.4973 27.5127C35.7965 27.0384 36.0782 26.5963 36.3422 26.1863C36.4105 26.6926 36.4742 27.1912 36.5301 27.6773C36.6016 28.2768 36.6606 28.8732 36.7072 29.4541H34.3247Z" fill="#FFD900"/>
  <path d="M51.7166 27.297C52.0087 26.843 52.1644 26.3147 52.1654 25.7749C52.1834 25.3326 52.057 24.8964 51.8051 24.5324C51.5732 24.2175 51.269 23.9629 50.9183 23.79C50.5497 23.6099 50.1541 23.4914 49.7472 23.439C49.3387 23.381 48.9266 23.352 48.514 23.3521C48.0388 23.3521 47.5589 23.3707 47.0883 23.408C46.6308 23.444 46.1762 23.511 45.7277 23.6083L45.5864 23.6409L43.2412 33.3976L43.4711 33.4488C43.9452 33.5533 44.4265 33.6229 44.9108 33.657C45.442 33.7004 45.9545 33.7222 46.4329 33.7222C48.0854 33.7222 49.3729 33.4116 50.2613 32.7903C51.1776 32.1504 51.642 31.2372 51.642 30.0677C51.6498 29.6242 51.5177 29.1895 51.2646 28.8252C51.0976 28.5919 50.8865 28.3935 50.6434 28.2413C51.0769 28.0248 51.4467 27.6994 51.7166 27.297ZM48.7501 27.3358C48.49 27.3892 48.2251 27.4157 47.9596 27.415H46.9081L47.4206 25.2997C47.52 25.2903 47.635 25.2795 47.7654 25.2717C47.9735 25.2577 48.1879 25.2546 48.3944 25.2515C48.802 25.233 49.2086 25.3063 49.5841 25.4658C49.7394 25.5404 49.9367 25.691 49.9367 26.1383C49.9442 26.3343 49.8939 26.5282 49.7922 26.6959C49.6857 26.8573 49.5452 26.9935 49.3807 27.0951C49.1865 27.2123 48.973 27.2938 48.7501 27.3358ZM49.157 31.0198C49.0016 31.2283 48.798 31.3961 48.5637 31.509C48.2975 31.6338 48.0135 31.7166 47.7219 31.7544C47.4131 31.7973 47.1018 31.8196 46.7901 31.8212C46.5354 31.8212 46.2993 31.8212 46.0912 31.801L45.8473 31.7824L46.4686 29.2384H47.8788C48.4426 29.2384 48.8433 29.3346 49.07 29.5257C49.1734 29.6096 49.2562 29.7161 49.3119 29.837C49.3677 29.9579 49.3949 30.0899 49.3915 30.223C49.4026 30.5071 49.3202 30.787 49.157 31.0198Z" fill="#FFD900"/>
  <path d="M58.7462 26.2637C58.3129 25.8599 57.7041 25.6549 56.9384 25.6549C56.2821 25.6458 55.6331 25.7933 55.0452 26.0851C54.4934 26.3642 54.0041 26.7526 53.607 27.2266C53.2075 27.7087 52.8996 28.2598 52.6984 28.8527C52.4915 29.4608 52.3865 30.099 52.3878 30.7413C52.3852 31.1383 52.446 31.5331 52.5679 31.9108C52.6873 32.289 52.8912 32.6352 53.164 32.9231C53.4368 33.211 53.7715 33.4331 54.1428 33.5726C54.5995 33.7426 55.0844 33.8243 55.5717 33.8134C56.0602 33.821 56.5479 33.7688 57.0238 33.6581C57.3637 33.5813 57.6959 33.4737 58.0163 33.3366L58.1716 33.2667L57.9836 31.42L57.6948 31.5381C57.121 31.7806 56.5052 31.9077 55.8823 31.9124C54.6755 31.9124 54.5124 31.3439 54.5062 30.9013C55.0374 30.878 55.5686 30.8345 56.0873 30.7677C56.6493 30.7017 57.1986 30.5542 57.7181 30.3297C58.1887 30.1246 58.6023 29.808 58.9233 29.4072C59.2603 28.9533 59.4303 28.3971 59.4047 27.8323C59.4136 27.539 59.3593 27.2472 59.2457 26.9765C59.1321 26.7059 58.9618 26.4628 58.7462 26.2637ZM56.6852 27.5062C56.9477 27.5062 57.131 27.5574 57.2195 27.6522C57.3092 27.7459 57.3598 27.8703 57.3608 28.0001C57.3608 28.3759 57.162 28.6415 56.7396 28.8372C56.3172 29.0329 55.6245 29.1587 54.7004 29.2084C54.7558 29.0343 54.8276 28.8658 54.9147 28.7052C55.0392 28.4715 55.196 28.2566 55.3806 28.0669C55.5541 27.8929 55.7584 27.7528 55.9832 27.6537C56.2043 27.5557 56.4435 27.5055 56.6852 27.5062Z" fill="#FFD900"/>
  <path d="M61.9559 30.9078C61.9399 31.02 61.9316 31.1331 61.9311 31.2464C61.9306 31.3404 61.9405 31.4342 61.9606 31.526C61.9732 31.5913 62.0032 31.6519 62.0476 31.7015C62.1072 31.7623 62.1808 31.8076 62.2619 31.8335C62.4125 31.8808 62.5701 31.9018 62.7278 31.8956C62.9519 31.8964 63.175 31.8666 63.391 31.8071C63.5911 31.7524 63.7877 31.6855 63.9796 31.6067L64.2716 31.4841L64.4425 33.3245L64.2871 33.3913C64.0131 33.5057 63.7307 33.5987 63.4422 33.6693C63.0476 33.7637 62.6428 33.8085 62.237 33.8029C61.3751 33.8029 60.7398 33.6025 60.3516 33.208C59.9633 32.8135 59.7676 32.2761 59.7676 31.6099C59.768 31.3677 59.7852 31.1259 59.8188 30.8861C59.8571 30.6222 59.9089 30.3604 59.9741 30.1018L61.4387 23.9359L63.7016 23.5771L63.1534 25.8354H65.5483L65.0994 27.6991H62.703L62.0507 30.4202C62.0025 30.6128 61.973 30.7774 61.9559 30.9078Z" fill="#FFD900"/>
  <path d="M67.5651 30.9078C67.5498 31.0206 67.5415 31.1342 67.5403 31.248C67.5406 31.3414 67.5505 31.4346 67.5698 31.526C67.583 31.591 67.613 31.6515 67.6568 31.7015C67.7173 31.7619 67.7913 31.8071 67.8726 31.8335C68.0232 31.8808 68.1809 31.9018 68.3386 31.8956C68.5631 31.8965 68.7868 31.8667 69.0033 31.8071C69.2029 31.7524 69.399 31.6855 69.5904 31.6067L69.8839 31.4841L70.0548 33.3245L69.8995 33.3928C69.6246 33.506 69.3417 33.5984 69.053 33.6693C68.6589 33.7637 68.2546 33.8085 67.8493 33.8028C66.9858 33.8028 66.3521 33.6025 65.9639 33.208C65.5756 32.8135 65.3783 32.2761 65.3799 31.6099C65.3804 31.3677 65.3975 31.1259 65.4311 30.8861C65.4694 30.6222 65.5212 30.3604 65.5865 30.1018L67.051 23.9359L69.3124 23.5771L68.7641 25.8338H71.1575L70.7102 27.6976H68.3122L67.6552 30.414C67.6133 30.6128 67.5822 30.7774 67.5651 30.9078Z" fill="#FFD900"/>
  <path d="M77.2855 26.269C77.0626 26.0629 76.7977 25.9077 76.5089 25.814C76.1763 25.7071 75.8286 25.6547 75.4792 25.6587C74.8219 25.6496 74.1719 25.7971 73.5828 26.0889C73.0306 26.3687 72.5412 26.7581 72.1447 27.2335C71.7446 27.7155 71.4362 28.2666 71.2345 28.8596C71.027 29.467 70.922 30.1048 70.9239 30.7467C70.9212 31.1441 70.982 31.5395 71.1041 31.9177C71.2241 32.2956 71.4281 32.6415 71.7009 32.9293C71.9736 33.2171 72.308 33.4394 72.6789 33.5795C73.1357 33.7495 73.6206 33.8312 74.1078 33.8203C74.5963 33.8271 75.0839 33.7749 75.56 33.665C75.8995 33.587 76.2316 33.4794 76.5524 33.3435L76.7077 33.2736L76.5136 31.4269L76.2247 31.5465C75.6512 31.7878 75.0359 31.9144 74.4138 31.9193C73.207 31.9193 73.0439 31.3508 73.0377 30.9082C73.5704 30.8864 74.1 30.8414 74.6172 30.7746C75.1791 30.7096 75.7284 30.5632 76.248 30.3397C76.7215 30.1358 77.1384 29.8197 77.4625 29.4187C77.7997 28.966 77.9708 28.411 77.9471 27.847C77.9566 27.5519 77.9024 27.2582 77.7882 26.9859C77.674 26.7136 77.5026 26.4691 77.2855 26.269ZM75.2245 27.5115C75.4854 27.5115 75.6702 27.5628 75.7572 27.6668C75.8483 27.7598 75.8995 27.8846 75.9001 28.0147C75.9001 28.389 75.7013 28.6562 75.2788 28.8519C74.8564 29.0476 74.1637 29.1656 73.2318 29.2137C73.2869 29.04 73.3587 28.872 73.4462 28.7121C73.5701 28.4776 73.727 28.2621 73.9121 28.0722C74.0854 27.8987 74.2891 27.7587 74.5132 27.6591C74.7371 27.5598 74.9796 27.5095 75.2245 27.5115Z" fill="#FFD900"/>
  <path d="M84.324 26.035L83.6873 27.8708L83.4683 27.7947C83.2836 27.7306 83.094 27.6817 82.9014 27.6487C82.6635 27.612 82.423 27.5948 82.1823 27.5975C82.0239 27.5983 81.8657 27.6092 81.7086 27.6301C81.6131 27.6418 81.5182 27.6584 81.4244 27.6798L80.0064 33.6251H77.832L79.6119 26.2323L79.7346 26.1903C80.1606 26.0503 80.5941 25.9342 81.033 25.8424C81.5355 25.7371 82.0478 25.685 82.5613 25.6871C82.684 25.6871 82.8175 25.6949 82.9651 25.7089C83.1126 25.7229 83.2477 25.7399 83.386 25.7586C83.5242 25.7772 83.6655 25.8052 83.7867 25.8331C83.9032 25.8598 84.0171 25.8973 84.1268 25.945L84.324 26.035Z" fill="#FFD900"/>
  <path d="M50.7117 36.374L50.5797 36.6955C49.8451 38.4909 49.0918 40.2117 48.3401 41.8208C47.5884 43.4298 46.787 44.972 45.9421 46.4257L45.8753 46.5422H43.8268L43.7973 46.3434C43.7227 45.8402 43.6513 45.3448 43.5814 44.8602C43.5115 44.3756 43.4462 43.874 43.3872 43.3785C43.3282 42.8831 43.2707 42.3675 43.2195 41.8487C43.1931 41.5769 43.1651 41.2927 43.1403 41.0007C42.6821 41.8378 42.2271 42.6548 41.7829 43.4376C41.2144 44.4409 40.6025 45.4566 39.9657 46.4366L39.8974 46.5422H37.8426L37.824 46.331C37.751 45.5218 37.6982 44.7033 37.6687 43.8988C37.6392 43.0943 37.6221 42.2665 37.6221 41.4278C37.6221 39.8996 37.6749 38.2766 37.7774 36.6007L37.7914 36.3818H40.0216L40.0061 36.6303C39.9502 37.5264 39.902 38.4225 39.8663 39.2907C39.8306 40.1589 39.8104 41.0613 39.8104 41.959V42.9732C39.8104 43.0508 39.8104 43.1285 39.8104 43.2077C39.9657 42.9375 40.1366 42.661 40.2996 42.3799C40.6103 41.8565 40.9116 41.3207 41.2098 40.7833C41.508 40.2459 41.7999 39.6961 42.0842 39.1649C42.3684 38.6338 42.6371 38.1073 42.8887 37.6118L42.9539 37.4845H44.8565L44.8673 37.705C44.8953 38.2082 44.931 38.7394 44.9714 39.2799C45.0118 39.8203 45.063 40.3764 45.1174 40.9184C45.1718 41.4604 45.2292 41.9963 45.2851 42.5181C45.31 42.7573 45.3364 42.984 45.3612 43.2155C45.5165 42.9142 45.6719 42.5942 45.8272 42.2696C46.1067 41.6779 46.3894 41.0613 46.6659 40.4354C46.9423 39.8095 47.2234 39.1463 47.4906 38.4893C47.7577 37.8324 48.0202 37.1738 48.2671 36.5277L48.3246 36.3724L50.7117 36.374Z" fill="#FFD900"/>
  <path d="M55.8665 39.178C55.4317 38.7741 54.8228 38.5691 54.0571 38.5691C53.3997 38.5606 52.7497 38.7086 52.1608 39.0009C51.6091 39.2801 51.1202 39.6691 50.7242 40.144C50.3241 40.6257 50.0161 41.1769 49.8156 41.7701C49.608 42.3775 49.5031 43.0152 49.505 43.6571C49.5022 44.0546 49.563 44.4499 49.6851 44.8282C49.8046 45.2061 50.0081 45.552 50.2803 45.8401C50.5525 46.1281 50.8864 46.3509 51.2569 46.4916C51.714 46.6602 52.1987 46.7414 52.6857 46.7307C53.1753 46.7375 53.6639 46.6854 54.141 46.5754C54.4809 46.4978 54.813 46.3896 55.1335 46.2524L55.2888 46.184L55.0993 44.3358L54.8104 44.4554C54.2367 44.6979 53.6208 44.8251 52.9979 44.8297C51.7912 44.8297 51.6281 44.2613 51.6219 43.8187C52.153 43.7954 52.6842 43.7503 53.2014 43.6851C53.7637 43.6182 54.3134 43.4707 54.8337 43.2471C55.3071 43.043 55.7235 42.7263 56.0467 42.3246C56.3847 41.8694 56.5548 41.3113 56.5282 40.745C56.5363 40.4517 56.4814 40.1601 56.3673 39.8898C56.2531 39.6194 56.0824 39.3767 55.8665 39.178ZM53.8055 40.4204C54.0665 40.4204 54.2513 40.4717 54.3398 40.5758C54.4299 40.6692 54.4805 40.7938 54.4811 40.9237C54.4811 41.298 54.2824 41.5651 53.8599 41.7608C53.4375 41.9565 52.7448 42.0823 51.8222 42.132C51.8771 41.9579 51.9484 41.7894 52.035 41.6288C52.1591 41.3949 52.316 41.1799 52.5009 40.9904C52.6747 40.8165 52.879 40.6759 53.1035 40.5758C53.324 40.4751 53.5632 40.4222 53.8055 40.4204Z" fill="#FFD900"/>
  <path d="M61.0725 36.7078C61.0777 36.8993 61.0411 37.0897 60.9652 37.2657C60.8892 37.4416 60.7759 37.5989 60.633 37.7266C60.3672 37.9763 60.0161 38.1152 59.6514 38.1149C59.3598 38.1203 59.0756 38.023 58.8485 37.84C58.7246 37.7366 58.6268 37.6056 58.5628 37.4575C58.4989 37.3094 58.4707 37.1483 58.4804 36.9873C58.4753 36.796 58.5111 36.6057 58.5852 36.4292C58.6594 36.2528 58.7703 36.0941 58.9106 35.9638C59.1713 35.7069 59.523 35.5634 59.8891 35.5647C60.1841 35.561 60.471 35.6611 60.6998 35.8473C60.8245 35.9519 60.9232 36.0841 60.9879 36.2335C61.0526 36.3828 61.0816 36.5452 61.0725 36.7078Z" fill="#FFD900"/>
  <path d="M60.4463 38.7522L58.5716 46.5333H56.4004L58.275 38.7522H60.4463Z" fill="#FFD900"/>
  <path d="M68.1527 39.1155C67.7878 38.9214 67.3956 38.7836 66.9894 38.707C66.5993 38.6281 66.2024 38.5871 65.8044 38.5843C65.0971 38.576 64.3944 38.6998 63.7326 38.9493C63.133 39.177 62.5857 39.5236 62.1235 39.9681C61.6743 40.4091 61.3206 40.9378 61.0845 41.5213C60.8357 42.1407 60.7106 42.8029 60.7164 43.4704C60.7164 44.2625 60.9369 44.9101 61.3703 45.3947C61.8036 45.8793 62.4838 46.1371 63.3707 46.1371C63.6731 46.1382 63.974 46.0948 64.2637 46.0082C64.3569 45.9802 64.447 45.9507 64.5324 45.9197C64.4298 46.276 64.2329 46.5979 63.9624 46.8515C63.6518 47.128 63.1859 47.2678 62.5646 47.2678C62.2015 47.2728 61.8394 47.2284 61.4883 47.1358C61.2019 47.059 60.9267 46.9452 60.6698 46.7972L60.4431 46.6621L59.6494 48.4714L59.8404 48.5739C60.1865 48.7526 60.551 48.8927 60.9276 48.9917C61.3842 49.1086 61.8542 49.165 62.3254 49.1595C62.9373 49.1717 63.5475 49.0932 64.1364 48.9265C64.6115 48.7867 65.0521 48.5491 65.4301 48.2292C65.7891 47.9123 66.0779 47.5241 66.2781 47.0892C66.5005 46.606 66.6722 46.1012 66.7906 45.5826L68.3142 39.1978L68.1527 39.1155ZM63.7869 44.3044C63.4421 44.3044 63.2107 44.2206 63.0787 44.0466C62.9191 43.803 62.8428 43.5141 62.8613 43.2235C62.8586 42.8578 62.9244 42.4948 63.0554 42.1534C63.1794 41.8318 63.3633 41.5366 63.5974 41.2836C63.8397 41.0234 64.1341 40.817 64.4613 40.6779C64.7885 40.5387 65.1414 40.47 65.4969 40.476C65.6122 40.4761 65.7274 40.4839 65.8417 40.4993L65.0185 43.9162C64.8538 44.0297 64.6739 44.1196 64.4843 44.1833C64.2603 44.2626 64.0245 44.3036 63.7869 44.3044Z" fill="#FFD900"/>
  <path d="M75.7132 41.1812C75.7097 41.6298 75.6513 42.0763 75.5392 42.5107L74.5732 46.5333H72.3988L73.3478 42.5806C73.3928 42.3725 73.4394 42.1535 73.486 41.9298C73.5276 41.739 73.5494 41.5443 73.5512 41.349C73.5604 41.1213 73.4907 40.8975 73.354 40.7153C73.2096 40.5289 72.8679 40.4901 72.6069 40.4901C72.4326 40.4905 72.2585 40.5056 72.0867 40.5352C71.9608 40.5584 71.8444 40.5833 71.7372 40.6113L70.3394 46.5333H68.165L70.8053 35.5201L73.0651 35.1614L72.2109 38.7335L72.461 38.6838C72.6892 38.6395 72.9211 38.6171 73.1536 38.6171C73.5423 38.6085 73.929 38.6733 74.2936 38.8081C74.601 38.9252 74.8781 39.1099 75.1044 39.3486C75.3212 39.5862 75.4806 39.8705 75.5703 40.1795C75.6676 40.5044 75.7158 40.8421 75.7132 41.1812Z" fill="#FFD900"/>
  <path d="M78.6882 44.2075L78.668 44.4575C78.6055 45.2493 78.383 46.0201 78.0141 46.7235C77.6505 47.4304 77.2093 48.0945 76.6986 48.7037L76.5977 48.8218L74.9561 48.3077L75.1207 48.0499C75.4789 47.4871 75.7762 46.8879 76.0075 46.2622C76.2327 45.6719 76.3739 45.0529 76.4269 44.4233L76.4439 44.2075H78.6882Z" fill="#FFD900"/>
  <path d="M86.2969 36.3724L83.8632 46.5329H81.6221L84.0558 36.3724H86.2969Z" fill="#FFD900"/>
  <path d="M93.1104 41.1539C93.1094 41.3734 93.0923 41.5924 93.0592 41.8094C93.0265 42.033 92.9862 42.2644 92.938 42.5005L91.9704 46.5386H89.7961L90.7279 42.5875C90.773 42.3856 90.8196 42.1759 90.8662 41.9662C90.908 41.7766 90.9345 41.5839 90.9454 41.39C90.9632 41.1553 90.8984 40.9218 90.7621 40.7299C90.6472 40.5746 90.38 40.5001 89.9855 40.5001C89.7032 40.4962 89.4213 40.5243 89.1453 40.5839L87.732 46.5432H85.5576L87.3359 39.1178L87.4648 39.079C87.8422 38.9656 88.2802 38.8584 88.7648 38.759C89.2982 38.6533 89.8409 38.6012 90.3847 38.6037C91.3057 38.6037 91.9968 38.8382 92.4426 39.3042C92.8883 39.7701 93.1104 40.3867 93.1104 41.1539Z" fill="#FFD900"/>
  <path d="M100.606 39.0493L99.8154 40.8307L99.6026 40.736C99.4317 40.6625 99.2557 40.6013 99.0761 40.5527C98.8489 40.4977 98.6156 40.4721 98.3819 40.4766C98.0428 40.4716 97.7075 40.5472 97.4034 40.6972C97.1155 40.8416 96.8622 41.0467 96.661 41.2982C96.4473 41.5725 96.2857 41.8836 96.1842 42.2161C96.0688 42.5877 96.0112 42.9748 96.0134 43.3639C96.0111 43.5679 96.0346 43.7714 96.0832 43.9696C96.1219 44.1322 96.1939 44.285 96.2945 44.4184C96.3945 44.5462 96.5277 44.644 96.6796 44.7011C96.898 44.7801 97.1294 44.817 97.3615 44.8098C97.6493 44.8104 97.9358 44.7706 98.2126 44.6918C98.4308 44.6347 98.643 44.5567 98.8462 44.4588L99.1569 44.3035L99.3479 46.1952L99.2003 46.2651C98.9129 46.3946 98.6146 46.4985 98.3089 46.5757C97.8959 46.6844 97.4701 46.7366 97.0431 46.731C96.5593 46.7412 96.0781 46.6567 95.6266 46.4825C95.2434 46.3304 94.8978 46.0967 94.614 45.7976C94.3426 45.5036 94.139 45.1537 94.0176 44.7725C93.8902 44.3708 93.8273 43.9515 93.8312 43.5301C93.8276 42.8875 93.9327 42.249 94.1419 41.6415C94.3408 41.0608 94.6475 40.5228 95.0458 40.0557C95.4454 39.5938 95.9395 39.223 96.4948 38.9686C97.1056 38.6954 97.7688 38.5597 98.4378 38.571C98.7885 38.5687 99.1386 38.6009 99.483 38.6673C99.7962 38.7292 100.102 38.8261 100.393 38.9561L100.606 39.0493Z" fill="#FFD900"/>
  <path d="M44.188 51.7371C44.2408 51.8334 44.3013 51.9514 44.3697 52.0912C44.438 52.2325 44.5095 52.3847 44.584 52.5493C44.6586 52.714 44.7316 52.8802 44.8045 53.0525C44.8775 53.2249 44.9443 53.3849 45.0096 53.5356L45.2146 53.0525C45.2876 52.8802 45.3606 52.7124 45.4351 52.5493C45.5097 52.3863 45.5796 52.2387 45.6494 52.0912C45.7193 51.9436 45.7768 51.8334 45.8296 51.7371H46.4509C46.4804 51.9374 46.5068 52.1611 46.5316 52.4096C46.5565 52.6581 46.5782 52.9159 46.5968 53.1861C46.6155 53.4564 46.6341 53.7235 46.6496 53.9937C46.6652 54.264 46.6792 54.5171 46.69 54.7563H46.0284C46.0206 54.4628 46.0082 54.1428 45.9942 53.798C45.9803 53.4533 45.9585 53.1038 45.929 52.7528C45.8762 52.8755 45.8187 53.0091 45.7535 53.1582C45.6883 53.3073 45.6261 53.4533 45.564 53.6024C45.5019 53.7515 45.4413 53.8912 45.3823 54.0264L45.227 54.3727H44.7517L44.6042 54.0264C44.5452 53.8907 44.4846 53.7494 44.4225 53.6024C44.3588 53.447 44.2967 53.3057 44.2314 53.1582L44.0575 52.7528C44.0285 53.1038 44.0068 53.4522 43.9923 53.798C43.9783 54.1428 43.9659 54.4628 43.9581 54.7563H43.2949C43.3073 54.5171 43.3213 54.264 43.3369 53.9937C43.3524 53.7235 43.371 53.4548 43.3897 53.1861C43.4083 52.9174 43.43 52.6596 43.4549 52.4096C43.4797 52.1595 43.5061 51.9436 43.5357 51.7371H44.188Z" fill="#55A301"/>
  <path d="M47.1409 53.6256C47.1371 53.4432 47.1687 53.2617 47.2341 53.0914C47.2897 52.949 47.3737 52.8196 47.4811 52.7109C47.5801 52.6102 47.6992 52.5313 47.8305 52.4794C47.9601 52.4285 48.0981 52.4021 48.2374 52.4018C48.3806 52.3938 48.5238 52.4162 48.6577 52.4676C48.7916 52.519 48.913 52.5982 49.014 52.7C49.2183 52.9449 49.3196 53.2594 49.2967 53.5775C49.2967 53.6148 49.2967 53.6567 49.2967 53.7017C49.2967 53.7468 49.2967 53.7856 49.2873 53.8213H47.8165C47.8228 53.8836 47.8428 53.9438 47.875 53.9975C47.9072 54.0512 47.9509 54.0971 48.0029 54.132C48.1349 54.2169 48.2903 54.2582 48.4471 54.25C48.5649 54.2501 48.6824 54.2392 48.7981 54.2174C48.8946 54.2012 48.9889 54.1741 49.0792 54.1366L49.1662 54.6631C49.1216 54.6855 49.0747 54.7032 49.0264 54.7159C48.9626 54.7347 48.8978 54.7497 48.8323 54.761C48.7568 54.7758 48.6806 54.7866 48.604 54.7936C48.523 54.8029 48.4416 54.8076 48.3601 54.8076C48.1768 54.8112 47.9945 54.7801 47.8228 54.7159C47.6798 54.661 47.5505 54.5757 47.4438 54.4659C47.3428 54.358 47.2669 54.2291 47.2217 54.0885C47.1703 53.9395 47.143 53.7832 47.1409 53.6256ZM48.6645 53.3771C48.6611 53.3245 48.6517 53.2724 48.6366 53.2218C48.6215 53.1706 48.5962 53.1231 48.562 53.0821C48.5275 53.0405 48.4847 53.0066 48.4362 52.9827C48.3771 52.9547 48.3121 52.9414 48.2468 52.9438C48.1823 52.9426 48.1183 52.9548 48.0588 52.9796C48.0089 53.0032 47.9644 53.037 47.9284 53.079C47.8933 53.1207 47.8664 53.1686 47.8492 53.2203C47.8302 53.2706 47.8162 53.3226 47.8072 53.3756L48.6645 53.3771Z" fill="#55A301"/>
  <path d="M51.8131 54.6798C51.7556 54.6969 51.6889 54.714 51.6128 54.7295C51.5367 54.745 51.4574 54.759 51.3751 54.7714C51.2928 54.7838 51.2089 54.7916 51.1235 54.7994C51.0381 54.8071 50.9558 54.8102 50.8766 54.8102C50.7048 54.8128 50.5339 54.7849 50.3718 54.7279C50.2313 54.6768 50.1035 54.5957 49.9975 54.4903C49.8942 54.3835 49.8148 54.2559 49.7645 54.116C49.7084 53.9575 49.681 53.7902 49.6838 53.6221C49.6815 53.4518 49.7051 53.2821 49.7537 53.1189C49.7947 52.9801 49.8628 52.8508 49.954 52.7384C50.0402 52.6341 50.1498 52.5516 50.274 52.4977C50.4113 52.4409 50.5587 52.4129 50.7073 52.4153C50.7888 52.4146 50.8701 52.4235 50.9496 52.4417C51.0232 52.4599 51.0949 52.4848 51.1639 52.5163V51.4804L51.8131 51.3748V54.6798ZM50.3454 53.5926C50.3369 53.764 50.3844 53.9335 50.4805 54.0756C50.5272 54.1366 50.5882 54.1851 50.6581 54.2168C50.728 54.2485 50.8046 54.2624 50.8812 54.2573C50.9387 54.2573 50.9931 54.2573 51.0365 54.2573C51.08 54.2573 51.1266 54.248 51.1577 54.2418V53.0614C51.1093 53.0323 51.057 53.0104 51.0024 52.9962C50.9375 52.979 50.8707 52.9701 50.8036 52.9698C50.4981 52.9657 50.3454 53.1727 50.3454 53.591V53.5926Z" fill="#55A301"/>
  <path d="M53.1333 51.8016C53.1362 51.854 53.1274 51.9065 53.1075 51.9551C53.0877 52.0037 53.0572 52.0473 53.0184 52.0827C52.9433 52.1488 52.8467 52.1852 52.7466 52.1852C52.6466 52.1852 52.55 52.1488 52.4748 52.0827C52.4003 52.0081 52.3584 51.907 52.3584 51.8016C52.3584 51.6962 52.4003 51.595 52.4748 51.5205C52.55 51.4544 52.6466 51.418 52.7466 51.418C52.8467 51.418 52.9433 51.4544 53.0184 51.5205C53.0572 51.5559 53.0877 51.5995 53.1075 51.6481C53.1274 51.6967 53.1362 51.7491 53.1333 51.8016ZM53.0728 54.7525H52.4205V52.4632H53.0697L53.0728 54.7525Z" fill="#55A301"/>
  <path d="M53.5704 53.6079C53.5695 53.4491 53.5963 53.2915 53.6496 53.1419C53.6997 52.9985 53.7794 52.8672 53.8835 52.7564C53.9875 52.6457 54.1137 52.558 54.2537 52.499C54.4105 52.4332 54.5792 52.401 54.7492 52.4042C54.8618 52.4032 54.9743 52.4142 55.0846 52.4368C55.1862 52.4585 55.2856 52.4897 55.3813 52.53L55.2462 53.0488C55.1806 53.0242 55.1137 53.0034 55.0458 52.9866C54.9657 52.969 54.8839 52.9607 54.802 52.9618C54.7215 52.9556 54.6407 52.9685 54.5662 52.9996C54.4917 53.0306 54.4256 53.0789 54.3733 53.1404C54.2742 53.2749 54.2243 53.4394 54.232 53.6063C54.2212 53.7765 54.2677 53.9455 54.364 54.0862C54.4233 54.1485 54.4963 54.1961 54.5771 54.2255C54.6579 54.2549 54.7445 54.2652 54.8299 54.2555C54.9142 54.2547 54.9983 54.2474 55.0815 54.2338C55.167 54.2213 55.2505 54.1978 55.33 54.1639L55.4217 54.6951C55.3306 54.7325 55.2359 54.7601 55.139 54.7774C55.0158 54.8019 54.8903 54.8138 54.7647 54.8131C54.5802 54.8176 54.3966 54.7859 54.2242 54.7199C54.0829 54.6632 53.9557 54.5762 53.8515 54.4652C53.7533 54.3551 53.6806 54.2246 53.6387 54.0831C53.5923 53.929 53.5692 53.7688 53.5704 53.6079Z" fill="#55A301"/>
  <path d="M56.5726 52.4022C56.735 52.3981 56.897 52.4201 57.0525 52.4674C57.1699 52.5028 57.2766 52.5669 57.3631 52.6538C57.4389 52.7381 57.4923 52.8401 57.5184 52.9504C57.5521 53.077 57.5683 53.2077 57.5666 53.3387V54.6883C57.4734 54.7085 57.3445 54.7318 57.1798 54.7598C56.9809 54.7895 56.7799 54.803 56.5788 54.8002C56.4432 54.8017 56.3078 54.7887 56.175 54.7613C56.0643 54.739 55.9589 54.6958 55.8644 54.634C55.7786 54.5749 55.7096 54.4946 55.664 54.401C55.6143 54.2897 55.5905 54.1687 55.5941 54.0469C55.5903 53.9289 55.6182 53.812 55.6749 53.7083C55.7269 53.6173 55.8012 53.5408 55.8908 53.4862C55.9865 53.4285 56.0917 53.388 56.2014 53.3666C56.3204 53.3415 56.4417 53.329 56.5633 53.3294C56.638 53.3286 56.7126 53.3323 56.7869 53.3402C56.8393 53.346 56.8911 53.3553 56.9422 53.3682V53.3076C56.9446 53.2589 56.937 53.2103 56.9199 53.1646C56.9028 53.1189 56.8766 53.0772 56.8428 53.042C56.7438 52.9644 56.6185 52.9282 56.4934 52.9411C56.3842 52.9415 56.2752 52.9498 56.1672 52.9659C56.0726 52.9789 55.9794 53.0012 55.8892 53.0327L55.8069 52.5109C55.8533 52.4959 55.9005 52.4835 55.9482 52.4736C56.0041 52.4612 56.0663 52.4487 56.133 52.4394C56.1998 52.4301 56.2697 52.4192 56.3443 52.413C56.4201 52.4053 56.4963 52.4017 56.5726 52.4022ZM56.6254 54.3001C56.6891 54.3001 56.7496 54.3001 56.8086 54.3001C56.8549 54.2985 56.9011 54.2944 56.9469 54.2876V53.7906C56.9205 53.7906 56.8816 53.7798 56.8304 53.7736C56.7825 53.7676 56.7342 53.7645 56.686 53.7642C56.6283 53.7646 56.5708 53.7682 56.5136 53.7751C56.4645 53.7815 56.4168 53.7957 56.3722 53.817C56.3319 53.8357 56.298 53.8658 56.2748 53.9037C56.2516 53.9416 56.2401 53.9854 56.2418 54.0298C56.2372 54.0711 56.2444 54.1128 56.2626 54.1502C56.2807 54.1876 56.309 54.2191 56.3443 54.241C56.4311 54.2851 56.5281 54.3055 56.6254 54.3001Z" fill="#55A301"/>
  <path d="M59.0706 54.7978C58.9157 54.7998 58.7613 54.7788 58.6125 54.7357C58.5082 54.707 58.4123 54.6538 58.3329 54.5804C58.2643 54.512 58.216 54.426 58.1931 54.3319C58.1676 54.2246 58.1556 54.1145 58.1574 54.0042V51.4804L58.8051 51.3748V53.8706C58.8045 53.9227 58.8092 53.9748 58.819 54.0259C58.8253 54.0689 58.8424 54.1095 58.8687 54.144C58.897 54.1791 58.934 54.2064 58.9759 54.2232C59.0355 54.2461 59.0985 54.2592 59.1623 54.262L59.0706 54.7978Z" fill="#55A301"/>
  <path d="M62.6453 52.0584C62.6795 52.178 62.7183 52.3116 62.7603 52.4622C62.8022 52.6129 62.8472 52.7651 62.8954 52.9282C62.9435 53.0913 62.9917 53.2481 63.0398 53.4081C63.088 53.5681 63.1377 53.7187 63.1843 53.8523C63.2215 53.697 63.2604 53.5417 63.2992 53.3677C63.338 53.1938 63.3769 53.0136 63.411 52.8288C63.4452 52.644 63.4809 52.4576 63.5135 52.2728C63.5461 52.0879 63.5788 51.9109 63.6083 51.7401H64.3134C64.2098 52.2453 64.0923 52.7573 63.9608 53.2761C63.8293 53.7948 63.6854 54.2887 63.5291 54.7578H62.9078C62.8053 54.4782 62.7075 54.1862 62.6112 53.8802C62.5149 53.5743 62.4217 53.2668 62.3285 52.9592C62.2353 53.2699 62.1437 53.5805 62.0505 53.8802C61.9573 54.18 61.8595 54.4782 61.7585 54.7578H61.1373C60.982 54.2908 60.8385 53.7969 60.7071 53.2761C60.5756 52.7553 60.458 52.2433 60.3545 51.7401H61.0907C61.1202 51.9109 61.1512 52.0895 61.187 52.2728C61.2227 52.456 61.2584 52.6424 61.2957 52.8288C61.333 53.0152 61.3718 53.1938 61.4122 53.3677C61.4525 53.5417 61.4914 53.7032 61.5318 53.8523C61.5846 53.7094 61.6358 53.5587 61.6871 53.3988C61.7383 53.2388 61.7834 53.0788 61.83 52.9204C61.8765 52.762 61.92 52.6098 61.9589 52.4545C61.9977 52.2992 62.0334 52.1749 62.066 52.0584H62.6453Z" fill="#55A301"/>
  <path d="M64.4495 53.6257C64.4457 53.4432 64.4773 53.2618 64.5427 53.0914C64.5988 52.9494 64.6828 52.82 64.7897 52.7109C64.8893 52.6102 65.0088 52.5313 65.1407 52.4795C65.2703 52.4284 65.4083 52.402 65.5476 52.4018C65.6908 52.3937 65.834 52.4161 65.9679 52.4675C66.1018 52.5189 66.2232 52.5982 66.3241 52.7C66.5284 52.9449 66.6297 53.2595 66.6068 53.5775C66.6068 53.6148 66.6068 53.6567 66.6068 53.7018C66.6068 53.7468 66.6068 53.7857 66.599 53.8214H65.1267C65.1333 53.8838 65.1535 53.944 65.186 53.9976C65.2185 54.0513 65.2624 54.0972 65.3146 54.132C65.4465 54.2171 65.602 54.2585 65.7588 54.25C65.8761 54.2501 65.993 54.2392 66.1083 54.2174C66.2047 54.2013 66.299 54.1742 66.3894 54.1367L66.4763 54.6632C66.4317 54.6856 66.3849 54.7033 66.3366 54.716C66.2733 54.7347 66.209 54.7498 66.144 54.761C66.0725 54.7745 65.9964 54.7853 65.9157 54.7936C65.8347 54.8029 65.7533 54.8075 65.6718 54.8076C65.488 54.8114 65.3051 54.7803 65.1329 54.716C64.9899 54.6611 64.8606 54.5758 64.7539 54.4659C64.6529 54.3581 64.5771 54.2292 64.5318 54.0885C64.4806 53.9394 64.4528 53.7833 64.4495 53.6257ZM65.9731 53.3772C65.9705 53.3244 65.9611 53.2722 65.9452 53.2219C65.93 53.171 65.9052 53.1236 65.8722 53.0821C65.8368 53.0408 65.7935 53.007 65.7448 52.9827C65.6857 52.9546 65.6207 52.9413 65.5553 52.9439C65.4914 52.9425 65.4279 52.9547 65.369 52.9796C65.3185 53.0024 65.2739 53.0364 65.2385 53.079C65.2024 53.1202 65.175 53.1683 65.1577 53.2203C65.1395 53.2708 65.1254 53.3228 65.1158 53.3756L65.9731 53.3772Z" fill="#55A301"/>
  <path d="M67.816 51.8016C67.8188 51.854 67.81 51.9065 67.7902 51.9551C67.7703 52.0037 67.7398 52.0473 67.701 52.0827C67.6259 52.1488 67.5293 52.1852 67.4292 52.1852C67.3292 52.1852 67.2326 52.1488 67.1574 52.0827C67.0829 52.0081 67.041 51.907 67.041 51.8016C67.041 51.6962 67.0829 51.595 67.1574 51.5205C67.2326 51.4544 67.3292 51.418 67.4292 51.418C67.5293 51.418 67.6259 51.4544 67.701 51.5205C67.7398 51.5559 67.7703 51.5995 67.7902 51.6481C67.81 51.6967 67.8188 51.7491 67.816 51.8016ZM67.7554 54.7525H67.1062V52.4632H67.7554V54.7525Z" fill="#55A301"/>
  <path d="M70.3403 54.4665C70.3403 54.8403 70.2456 55.1178 70.0561 55.299C69.8666 55.4802 69.5726 55.5713 69.174 55.5723C69.0339 55.5723 68.8941 55.5598 68.7562 55.5351C68.6245 55.5122 68.4947 55.4795 68.3679 55.4372L68.4813 54.8921C68.5847 54.9339 68.6918 54.9662 68.8012 54.9884C68.9271 55.0127 69.0551 55.0241 69.1833 55.0225C69.2535 55.0297 69.3245 55.0227 69.3921 55.0019C69.4596 54.9811 69.5222 54.9469 69.5762 54.9014C69.6546 54.8173 69.6964 54.7056 69.6927 54.5908V54.5085C69.6235 54.5399 69.5511 54.5638 69.4768 54.5799C69.3971 54.5965 69.3159 54.6048 69.2345 54.6047C69.1003 54.6131 68.9658 54.5923 68.8403 54.5438C68.7148 54.4953 68.6013 54.4202 68.5077 54.3236C68.3283 54.1024 68.2385 53.822 68.2561 53.5378C68.2527 53.379 68.279 53.2209 68.3337 53.0718C68.3836 52.9384 68.4615 52.8171 68.562 52.7162C68.6676 52.6154 68.7929 52.5377 68.9301 52.4878C69.0882 52.4324 69.2549 52.4051 69.4225 52.4071C69.5001 52.4071 69.5778 52.4071 69.6632 52.418C69.7486 52.4288 69.8294 52.435 69.9101 52.4475C69.9909 52.4599 70.0654 52.4723 70.1431 52.4878C70.2207 52.5034 70.2829 52.5205 70.3403 52.5391V54.4665ZM68.9177 53.5347C68.9177 53.897 69.0642 54.0782 69.3572 54.0782C69.4203 54.0793 69.4832 54.0704 69.5436 54.0518C69.5976 54.0378 69.6497 54.0175 69.6989 53.9913V52.9553C69.6663 52.9553 69.629 52.9445 69.5855 52.9398C69.5338 52.9371 69.4819 52.9371 69.4302 52.9398C69.3573 52.9343 69.2841 52.9468 69.2172 52.9763C69.1502 53.0059 69.0917 53.0515 69.0466 53.1091C68.9591 53.2334 68.9139 53.3826 68.9177 53.5347Z" fill="#55A301"/>
  <path d="M70.9492 54.7543V51.4804L71.5984 51.3748V52.4728C71.7164 52.4344 71.8394 52.4135 71.9634 52.4107C72.1221 52.4063 72.2803 52.4321 72.4293 52.4868C72.5447 52.532 72.6464 52.6064 72.7244 52.7027C72.8005 52.7998 72.8536 52.9129 72.8797 53.0335C72.9121 53.1735 72.9277 53.3169 72.9263 53.4606V54.7543H72.2771V53.5398C72.2891 53.3872 72.2612 53.2342 72.1964 53.0956C72.163 53.049 72.1177 53.0122 72.0653 52.989C72.0128 52.9658 71.9551 52.957 71.8982 52.9636C71.8435 52.9638 71.7889 52.969 71.7351 52.9791L71.5984 53.0117V54.7543H70.9492Z" fill="#55A301"/>
  <path d="M73.4923 51.8949L74.1415 51.7908V52.4649H74.918V53.0054H74.1415V53.8099C74.1359 53.9235 74.1606 54.0366 74.2129 54.1376C74.246 54.1816 74.2902 54.216 74.341 54.2372C74.3917 54.2585 74.4472 54.2659 74.5018 54.2587C74.5742 54.2588 74.6465 54.252 74.7177 54.2385C74.7871 54.227 74.8552 54.2088 74.9211 54.1842L75.0112 54.6905C74.9263 54.7241 74.8391 54.7516 74.7503 54.7728C74.6345 54.798 74.5162 54.8095 74.3977 54.807C74.248 54.8119 74.0987 54.7876 73.9582 54.7355C73.8499 54.6936 73.7542 54.6246 73.6802 54.5352C73.6075 54.4447 73.5575 54.3382 73.5342 54.2246C73.5051 54.0914 73.4911 53.9555 73.4923 53.8192V51.8949Z" fill="#55A301"/>
  <path d="M78.5532 54.1708V54.7548H76.5342V51.7371H77.2129V54.1708H78.5532Z" fill="#55A301"/>
  <path d="M81.0846 53.6062C81.086 53.7739 81.0598 53.9408 81.0069 54.1C80.9584 54.2417 80.8812 54.3717 80.7802 54.4821C80.6805 54.5888 80.5593 54.673 80.4245 54.7291C80.1279 54.845 79.7986 54.845 79.502 54.7291C79.3674 54.6734 79.2466 54.5891 79.1478 54.4821C79.0454 54.3719 78.9666 54.2419 78.9164 54.1C78.8597 53.9417 78.8318 53.7744 78.8341 53.6062C78.8319 53.4383 78.8604 53.2715 78.918 53.1138C78.97 52.9727 79.0504 52.8438 79.1541 52.7349C79.2548 52.6295 79.3765 52.5465 79.5113 52.491C79.6541 52.4321 79.8072 52.4026 79.9617 52.404C80.1176 52.4026 80.2723 52.4321 80.4167 52.491C80.5508 52.5461 80.6715 52.6293 80.7708 52.7349C80.8731 52.844 80.9518 52.973 81.0023 53.1138C81.0586 53.2718 81.0865 53.4385 81.0846 53.6062ZM80.423 53.6062C80.4318 53.4398 80.3902 53.2747 80.3034 53.1325C80.2655 53.0774 80.2143 53.0328 80.1546 53.0029C80.0948 52.973 80.0284 52.9588 79.9617 52.9616C79.8945 52.9589 79.8277 52.9731 79.7674 53.0029C79.7072 53.0328 79.6554 53.0773 79.6169 53.1325C79.5289 53.2742 79.4866 53.4396 79.4957 53.6062C79.4871 53.7737 79.5293 53.9399 79.6169 54.083C79.6547 54.1392 79.7062 54.1848 79.7665 54.2155C79.8268 54.2462 79.894 54.261 79.9617 54.2585C80.0289 54.261 80.0957 54.2463 80.1555 54.2155C80.2154 54.1848 80.2663 54.1391 80.3034 54.083C80.3897 53.9394 80.4313 53.7734 80.423 53.6062Z" fill="#55A301"/>
  <path d="M82.2384 54.2873C82.3238 54.2925 82.4094 54.2803 82.49 54.2516C82.5147 54.2394 82.5351 54.2199 82.5484 54.1958C82.5618 54.1716 82.5674 54.1439 82.5645 54.1165C82.562 54.0872 82.5517 54.0592 82.5348 54.0352C82.5179 54.0112 82.4949 53.9921 82.4682 53.9798C82.3757 53.927 82.2785 53.8828 82.1778 53.8478C82.0753 53.809 81.9837 53.7702 81.9014 53.7298C81.8235 53.6929 81.7522 53.6436 81.6901 53.5838C81.631 53.5271 81.5848 53.4582 81.555 53.3819C81.5206 53.2912 81.5043 53.1946 81.5069 53.0977C81.5038 52.9999 81.5239 52.9028 81.5655 52.8143C81.607 52.7258 81.6689 52.6483 81.746 52.5882C81.938 52.4543 82.1693 52.3887 82.403 52.4019C82.5375 52.4014 82.6717 52.4138 82.8037 52.4391C82.9092 52.4572 83.0131 52.4837 83.1143 52.5184L83.0025 53.0247C82.9215 52.9969 82.8391 52.9735 82.7556 52.9548C82.6576 52.9333 82.5576 52.9229 82.4574 52.9237C82.2539 52.9237 82.1467 52.9812 82.1467 53.0946C82.1467 53.1179 82.1509 53.1411 82.1592 53.1629C82.1709 53.1871 82.1892 53.2076 82.212 53.2219C82.2459 53.2455 82.2818 53.2663 82.3191 53.284C82.3642 53.3058 82.4216 53.3291 82.49 53.3555C82.6113 53.3982 82.7291 53.4502 82.8425 53.5108C82.9244 53.5535 82.9989 53.609 83.0631 53.6754C83.1154 53.7323 83.1541 53.8003 83.1765 53.8742C83.1996 53.956 83.2106 54.0408 83.2091 54.1258C83.2143 54.226 83.1936 54.3257 83.149 54.4155C83.1044 54.5053 83.0373 54.5821 82.9544 54.6384C82.7369 54.767 82.4859 54.8276 82.2337 54.8123C82.0629 54.8161 81.8922 54.7984 81.7259 54.7595C81.6305 54.7378 81.5371 54.7087 81.4463 54.6725L81.555 54.146C81.6649 54.1893 81.7781 54.2236 81.8936 54.2485C82.0068 54.2736 82.1224 54.2866 82.2384 54.2873Z" fill="#55A301"/>
  <path d="M84.3585 54.2875C84.4444 54.2925 84.5305 54.2804 84.6117 54.2517C84.6364 54.2395 84.6568 54.22 84.6701 54.1959C84.6834 54.1717 84.6891 54.1441 84.6862 54.1166C84.6837 54.0874 84.6734 54.0593 84.6565 54.0353C84.6396 54.0113 84.6166 53.9922 84.5899 53.9799C84.4968 53.9272 84.3991 53.883 84.2979 53.8479C84.197 53.8091 84.1038 53.7703 84.0215 53.7299C83.9441 53.6922 83.8728 53.643 83.8102 53.5839C83.7521 53.5264 83.7061 53.4577 83.6751 53.382C83.6415 53.2911 83.6251 53.1947 83.627 53.0978C83.6241 52.9999 83.6444 52.9027 83.6863 52.8142C83.7281 52.7257 83.7903 52.6483 83.8677 52.5884C84.0594 52.454 84.2909 52.3883 84.5247 52.402C84.6591 52.4015 84.7933 52.414 84.9254 52.4393C85.0308 52.4575 85.1347 52.484 85.236 52.5185L85.1226 53.0248C85.0422 52.9968 84.9603 52.9734 84.8772 52.9549C84.7793 52.9334 84.6793 52.923 84.579 52.9238C84.3756 52.9238 84.2684 52.9813 84.2684 53.0947C84.2673 53.1181 84.2716 53.1415 84.2808 53.163C84.2925 53.1873 84.3108 53.2077 84.3336 53.222C84.3668 53.246 84.4022 53.2668 84.4393 53.2841C84.4843 53.3059 84.5418 53.3292 84.6117 53.3556C84.7328 53.3987 84.8507 53.4506 84.9642 53.5109C85.0461 53.5536 85.1206 53.6092 85.1848 53.6755C85.236 53.7332 85.2746 53.8009 85.2981 53.8743C85.3213 53.9562 85.3323 54.0409 85.3307 54.1259C85.336 54.2261 85.3153 54.3259 85.2707 54.4156C85.2261 54.5054 85.159 54.5822 85.076 54.6385C84.8585 54.767 84.6076 54.8276 84.3554 54.8124C84.1846 54.8163 84.0139 54.7985 83.8475 54.7596C83.7518 54.7376 83.6578 54.7085 83.5664 54.6726L83.6751 54.1461C83.7855 54.1896 83.8992 54.2239 84.0153 54.2486C84.128 54.2737 84.243 54.2867 84.3585 54.2875Z" fill="#55A301"/>
  <path d="M88.2753 54.814C87.786 54.814 87.4117 54.6773 87.1555 54.404C86.8992 54.1306 86.7688 53.7439 86.7688 53.2423C86.7654 53.0142 86.8054 52.7875 86.8868 52.5744C86.9599 52.3897 87.0704 52.2221 87.2114 52.0821C87.3493 51.9441 87.5157 51.8381 87.6991 51.7715C87.8957 51.7004 88.1035 51.6651 88.3125 51.6674C88.4291 51.6665 88.5455 51.6759 88.6604 51.6954C88.7534 51.7113 88.8452 51.7331 88.9354 51.7606C89.0022 51.7817 89.0675 51.8071 89.131 51.8367C89.1823 51.8631 89.2211 51.8833 89.2444 51.8988L89.0487 52.4471C88.9454 52.3935 88.8366 52.3513 88.7241 52.3213C88.587 52.2841 88.4453 52.2663 88.3032 52.2685C88.1974 52.2676 88.0922 52.2855 87.9926 52.3213C87.8924 52.3552 87.8014 52.4121 87.727 52.4874C87.6443 52.573 87.5807 52.6752 87.5407 52.7872C87.4919 52.9296 87.4688 53.0794 87.4723 53.2298C87.4708 53.3612 87.4859 53.4921 87.5174 53.6197C87.5443 53.7324 87.5946 53.8382 87.6649 53.9303C87.7368 54.0195 87.8289 54.0903 87.9336 54.1369C88.06 54.1911 88.1968 54.217 88.3343 54.213C88.4231 54.2133 88.5118 54.2076 88.5999 54.1959C88.6775 54.1834 88.7552 54.1695 88.808 54.1539C88.8611 54.1398 88.913 54.1216 88.9633 54.0996L89.0891 54.0437L89.277 54.5873C89.1497 54.6575 89.0133 54.7098 88.8717 54.7426C88.6767 54.7918 88.4763 54.8158 88.2753 54.814Z" fill="#55A301"/>
  <path d="M89.5121 53.6257C89.508 53.4431 89.5402 53.2615 89.6068 53.0914C89.6624 52.9495 89.7458 52.8201 89.8522 52.7109C89.9518 52.6102 90.0714 52.5313 90.2032 52.4795C90.3328 52.4284 90.4708 52.402 90.6101 52.4018C90.7533 52.3937 90.8966 52.4161 91.0304 52.4675C91.1643 52.5189 91.2857 52.5982 91.3867 52.7C91.5909 52.9449 91.6923 53.2595 91.6693 53.5775C91.6693 53.6148 91.6693 53.6567 91.6693 53.7018C91.6693 53.7468 91.6693 53.7857 91.6616 53.8214H90.1892C90.1961 53.8837 90.2165 53.9438 90.249 53.9974C90.2814 54.051 90.3252 54.097 90.3772 54.132C90.5091 54.2171 90.6645 54.2585 90.8213 54.25C90.9386 54.2502 91.0556 54.2393 91.1708 54.2174C91.2673 54.2015 91.3617 54.1744 91.4519 54.1367L91.5389 54.6632C91.4947 54.6853 91.4484 54.703 91.4007 54.716C91.3368 54.7346 91.272 54.7496 91.2065 54.761C91.1351 54.7745 91.059 54.7853 90.9782 54.7936C90.8973 54.8029 90.8158 54.8075 90.7344 54.8076C90.5506 54.8112 90.3677 54.7801 90.1954 54.716C90.0527 54.6615 89.9239 54.5761 89.818 54.4659C89.716 54.3589 89.64 54.2297 89.5959 54.0885C89.5434 53.9397 89.5151 53.7835 89.5121 53.6257ZM91.0372 53.3772C91.0339 53.3244 91.024 53.2722 91.0077 53.2219C90.9925 53.171 90.9678 53.1236 90.9347 53.0821C90.8993 53.0408 90.856 53.007 90.8074 52.9827C90.7483 52.9546 90.6833 52.9413 90.6179 52.9439C90.554 52.9429 90.4905 52.955 90.4315 52.9796C90.381 53.0024 90.3364 53.0364 90.3011 53.079C90.265 53.1202 90.2375 53.1683 90.2203 53.2203C90.202 53.2708 90.188 53.3228 90.1784 53.3756L91.0372 53.3772Z" fill="#55A301"/>
  <path d="M92.1638 52.5501C92.3037 52.5113 92.4458 52.4812 92.5894 52.46C92.7713 52.4314 92.9551 52.4174 93.1392 52.4181C93.304 52.4138 93.4682 52.4396 93.6238 52.4942C93.7443 52.538 93.8513 52.6124 93.9344 52.7101C94.0091 52.808 94.062 52.9208 94.0897 53.0409C94.1221 53.1809 94.1377 53.3243 94.1363 53.468V54.7617H93.4886V53.5472C93.5006 53.3943 93.4717 53.241 93.4048 53.103C93.3694 53.0554 93.322 53.018 93.2674 52.9948C93.2128 52.9716 93.153 52.9634 93.0942 52.971C93.0476 52.971 92.9994 52.971 92.9466 52.9787C92.8938 52.9865 92.8472 52.9881 92.8068 52.9927V54.7555H92.1592L92.1638 52.5501Z" fill="#55A301"/>
  <path d="M94.709 51.8949L95.3567 51.7908V52.4649H96.1332V53.0054H95.3567V53.8099C95.3516 53.9236 95.3768 54.0367 95.4297 54.1376C95.4628 54.1816 95.507 54.216 95.5577 54.2372C95.6085 54.2585 95.664 54.2659 95.7186 54.2587C95.791 54.2587 95.8633 54.252 95.9344 54.2385C96.0034 54.2273 96.071 54.2091 96.1363 54.1842L96.228 54.6905C96.1431 54.7241 96.0559 54.7516 95.967 54.7728C95.8513 54.7979 95.7329 54.8094 95.6145 54.807C95.4647 54.812 95.3154 54.7877 95.175 54.7355C95.0665 54.6932 94.9703 54.6243 94.8954 54.5352C94.8233 54.4444 94.7734 54.338 94.7494 54.2246C94.7217 54.0912 94.7081 53.9554 94.709 53.8192V51.8949Z" fill="#55A301"/>
  <path d="M96.4691 53.6257C96.465 53.4431 96.4972 53.2615 96.5638 53.0915C96.6194 52.9495 96.7028 52.8201 96.8092 52.7109C96.9088 52.6102 97.0284 52.5314 97.1602 52.4795C97.2898 52.4284 97.4279 52.4021 97.5672 52.4019C97.7103 52.3937 97.8536 52.416 97.9875 52.4674C98.1214 52.5188 98.2428 52.5981 98.3437 52.7001C98.548 52.9449 98.6493 53.2595 98.6264 53.5776C98.6264 53.6149 98.6264 53.6568 98.6264 53.7018C98.6264 53.7469 98.6264 53.7857 98.6186 53.8214H97.1354C97.1423 53.8837 97.1627 53.9438 97.1951 53.9974C97.2276 54.0511 97.2713 54.097 97.3233 54.132C97.4558 54.2203 97.6131 54.2639 97.7722 54.2563C97.8894 54.2564 98.0064 54.2455 98.1216 54.2237C98.2181 54.2077 98.3125 54.1806 98.4027 54.1429L98.4897 54.6694C98.4455 54.6916 98.3992 54.7093 98.3515 54.7222C98.2876 54.7408 98.2228 54.7558 98.1573 54.7673C98.0859 54.7807 98.0098 54.7916 97.929 54.7999C97.8481 54.8091 97.7667 54.8138 97.6852 54.8139C97.5014 54.8175 97.3185 54.7864 97.1463 54.7222C97.0036 54.6677 96.8747 54.5823 96.7689 54.4722C96.6668 54.3651 96.5908 54.236 96.5468 54.0948C96.4957 53.9436 96.4695 53.7852 96.4691 53.6257ZM97.9943 53.3772C97.991 53.3244 97.9811 53.2722 97.9647 53.2219C97.9496 53.1711 97.9248 53.1236 97.8918 53.0821C97.8563 53.0409 97.813 53.0071 97.7644 52.9827C97.7053 52.9546 97.6403 52.9413 97.5749 52.9439C97.511 52.9429 97.4476 52.9551 97.3885 52.9796C97.3381 53.0024 97.2935 53.0364 97.2581 53.079C97.222 53.1203 97.1945 53.1683 97.1773 53.2204C97.1591 53.2709 97.145 53.3228 97.1354 53.3757L97.9943 53.3772Z" fill="#55A301"/>
  <path d="M100.495 53.0384C100.438 53.0244 100.37 53.0089 100.292 52.9934C100.209 52.9761 100.124 52.9678 100.039 52.9685C99.9899 52.9696 99.9412 52.9732 99.8928 52.9794C99.8492 52.9844 99.8061 52.9927 99.7639 53.0042V54.7546H99.1162V52.5802C99.2511 52.5336 99.3885 52.4947 99.5278 52.4638C99.7012 52.4261 99.8784 52.4078 100.056 52.4094C100.092 52.4094 100.133 52.4094 100.182 52.4094C100.23 52.4094 100.281 52.4203 100.337 52.428C100.393 52.4358 100.435 52.4436 100.492 52.4529C100.535 52.4617 100.577 52.4742 100.618 52.4902L100.495 53.0384Z" fill="#55A301"/>
  <path d="M85.5727 5.6449C85.5727 5.6449 81.589 10.0573 80.8652 14.2911C80.1415 18.5249 83.3052 23.5104 88.5935 26.174C88.5935 26.174 93.2435 21.3593 91.81 16.2465C90.3765 11.1336 85.3258 11.584 85.5727 5.6449Z" fill="#55A301"/>
  <path d="M88.7613 24.9651C88.8426 24.0185 88.8462 23.0669 88.7722 22.1197C88.705 21.1868 88.5716 20.2599 88.3731 19.3459C88.3296 19.1176 88.2612 18.8924 88.2084 18.6656L88.1261 18.3255L88.0252 17.99C87.9584 17.7648 87.89 17.5412 87.8264 17.3144C87.7627 17.0877 87.6711 16.8733 87.5918 16.6497L87.4785 16.3142C87.4396 16.2024 87.3899 16.0968 87.348 15.9849C87.2595 15.766 87.1741 15.5454 87.0886 15.3218C87.0032 15.0981 86.8976 14.8853 86.8075 14.6617C86.7174 14.438 86.6212 14.2191 86.5342 13.9892C86.6895 14.1725 86.8448 14.3619 87.0001 14.553C87.0762 14.6477 87.1477 14.7471 87.2222 14.8434C87.2972 14.9397 87.3672 15.0397 87.4319 15.1432C87.5608 15.3482 87.6897 15.5563 87.8139 15.7644C87.8776 15.8685 87.9429 15.9725 87.9988 16.075L88.1541 16.4043C88.2612 16.6233 88.3653 16.8454 88.4647 17.0675C88.5641 17.2896 88.6371 17.5334 88.7225 17.7571C88.766 17.872 88.8064 17.9885 88.8452 18.1049L88.9462 18.4591C89.0067 18.6967 89.0797 18.925 89.1279 19.1735C89.3408 20.1366 89.4264 21.1235 89.3826 22.1089C89.3538 23.0911 89.1431 24.0596 88.7613 24.9651Z" fill="white"/>
  <path d="M114.153 22.3917C114.153 22.3917 111.732 29.6913 107.428 33.2076C103.124 36.7238 95.4969 36.3433 89.126 32.094C89.126 32.094 91.5706 23.7911 98.2428 22.1386C104.915 20.486 107.627 26.4562 114.153 22.3917Z" fill="#55A301"/>
  <path d="M90.2764 31.1157C91.0529 30.1294 92.064 29.3389 93.1357 28.6788L93.541 28.4303C93.6761 28.348 93.819 28.275 93.9588 28.2067C94.2384 28.0622 94.5164 27.91 94.8099 27.7904C95.1034 27.6709 95.3892 27.5357 95.6859 27.4239L96.5836 27.1133C96.7311 27.0589 96.8864 27.0263 97.0386 26.9844L97.5046 26.8648L97.9705 26.7483C98.1258 26.7172 98.2811 26.6908 98.4364 26.6629C98.7471 26.6101 99.0577 26.5557 99.3683 26.5076C99.6789 26.4594 99.9895 26.4517 100.311 26.4284L100.777 26.3926C100.932 26.3926 101.088 26.3926 101.243 26.3926L102.184 26.4066C102.262 26.4066 102.339 26.4066 102.419 26.4159L102.653 26.4408C102.808 26.4579 102.964 26.4718 103.119 26.492C103.43 26.5293 103.74 26.5681 104.051 26.6163C103.74 26.6551 103.43 26.6815 103.119 26.7079C102.964 26.7219 102.808 26.7297 102.653 26.7405L102.423 26.7576C102.346 26.7576 102.268 26.7778 102.193 26.7871L101.277 26.9005C101.122 26.9223 100.966 26.93 100.82 26.9549L100.368 27.0341C100.067 27.0879 99.7659 27.1397 99.4646 27.1894L98.5731 27.3913L98.1274 27.4876L97.6894 27.6134C97.3974 27.6973 97.1007 27.7687 96.8119 27.8619C95.6508 28.2242 94.5194 28.6754 93.4276 29.2115C92.3208 29.7479 91.2659 30.3853 90.2764 31.1157Z" fill="white"/>
</svg>